M48
;GenerationSoftware,Autodesk,EAGLE,9.6.2*%
;CreationDate,2022-06-09T04:17:19Z*%
FMAT,2
ICI,OFF
METRIC,TZ,000.000
T5C0.350
T4C0.813
T3C0.900
T2C1.000
T1C1.016
%
G90
M71
T1
X46990Y24130
X44450Y11430
X15240Y2540
X15240Y5080
X2540Y5080
X2540Y2540
X2540Y7620
X2540Y26670
X2540Y29210
X2540Y31750
X2540Y34290
X2540Y36830
X2540Y24130
X2540Y21590
X2540Y19050
X2540Y16510
X35560Y2540
X2540Y13970
X46990Y13970
X46990Y16510
X46990Y19050
X46990Y21590
X46990Y26670
X46990Y29210
X46990Y31750
X46990Y34290
X46990Y36830
X41910Y8890
X41910Y11430
X12700Y2540
X12700Y5080
X12700Y7620
X12700Y10160
X40640Y2540
X38100Y2540
X33020Y2540
X30480Y2540
X27940Y2540
X20320Y46990
X22860Y46990
X25400Y46990
X27940Y46990
X30480Y46990
X44450Y3810
X44450Y6350
X44450Y8890
T2
X48120Y46990
X43320Y46990
X1791Y46990
X6591Y46990
T3
X21590Y5460
X21590Y2160
X19090Y2160
X19090Y5460
X24090Y5460
X24090Y2160
T4
X21590Y16510
X21590Y13970
X21590Y11430
X21590Y8890
X29210Y8890
X29210Y11430
X29210Y13970
X29210Y16510
X29210Y19050
X21590Y34290
X29210Y24130
X29210Y26670
X29210Y29210
X29210Y31750
X29210Y34290
X29210Y36830
X29210Y39370
X29210Y41910
X29210Y21590
X31750Y21590
X34290Y41910
X34290Y39370
X19050Y11430
X16510Y11430
X34290Y21590
X38100Y46990
X40640Y46990
X8890Y46990
X11430Y46990
X41910Y43180
X41910Y35560
X12700Y34290
X12700Y41910
X38100Y43180
X38100Y35560
X8890Y41910
X8890Y34290
X21590Y41910
X21590Y39370
X21590Y36830
X21590Y31750
X21590Y29210
X21590Y26670
X21590Y24130
X21590Y21590
X21590Y19050
T5
X45720Y19050
X43180Y19050
X33020Y17780
X33020Y11430
X10160Y26670
X7620Y26670
X27359Y16510
X24130Y8890
X10160Y29210
X7620Y29210
X10160Y31750
X34290Y43180
X7620Y31750
X35560Y11430
X35560Y16510
X38100Y8890
X38100Y13970
X19050Y17780
X17780Y40640
X19050Y15240
X11430Y43180
X27940Y43180
X25400Y43180
X30480Y10160
X34290Y8890
X16510Y13970
X7620Y13970
X7620Y6350
M30