G04 EAGLE Gerber RS-274X export*
G75*
%MOMM*%
%FSLAX34Y34*%
%LPD*%
%INSoldermask Top*%
%IPPOS*%
%AMOC8*
5,1,8,0,0,1.08239X$1,22.5*%
G01*
%ADD10P,1.649562X8X292.500000*%
%ADD11P,1.649562X8X202.500000*%
%ADD12P,1.649562X8X22.500000*%
%ADD13P,1.649562X8X112.500000*%
%ADD14C,1.524000*%
%ADD15C,2.082800*%
%ADD16C,1.611200*%
%ADD17C,1.711200*%
%ADD18C,0.959600*%


D10*
X342900Y419100D03*
X342900Y393700D03*
D11*
X190500Y114300D03*
X165100Y114300D03*
D12*
X317500Y215900D03*
X342900Y215900D03*
X381000Y469900D03*
X406400Y469900D03*
X88900Y469900D03*
X114300Y469900D03*
D10*
X419100Y431800D03*
X419100Y355600D03*
D13*
X127000Y342900D03*
X127000Y419100D03*
D10*
X381000Y431800D03*
X381000Y355600D03*
X88900Y419100D03*
X88900Y342900D03*
D14*
X209296Y419100D02*
X222504Y419100D01*
X222504Y393700D02*
X209296Y393700D01*
X209296Y368300D02*
X222504Y368300D01*
X222504Y342900D02*
X209296Y342900D01*
X209296Y317500D02*
X222504Y317500D01*
X222504Y292100D02*
X209296Y292100D01*
X209296Y266700D02*
X222504Y266700D01*
X222504Y241300D02*
X209296Y241300D01*
X209296Y215900D02*
X222504Y215900D01*
X222504Y190500D02*
X209296Y190500D01*
X209296Y165100D02*
X222504Y165100D01*
X222504Y139700D02*
X209296Y139700D01*
X209296Y114300D02*
X222504Y114300D01*
X222504Y88900D02*
X209296Y88900D01*
X285496Y88900D02*
X298704Y88900D01*
X298704Y114300D02*
X285496Y114300D01*
X285496Y139700D02*
X298704Y139700D01*
X298704Y165100D02*
X285496Y165100D01*
X285496Y190500D02*
X298704Y190500D01*
X298704Y215900D02*
X285496Y215900D01*
X285496Y241300D02*
X298704Y241300D01*
X298704Y266700D02*
X285496Y266700D01*
X285496Y292100D02*
X298704Y292100D01*
X298704Y317500D02*
X285496Y317500D01*
X285496Y342900D02*
X298704Y342900D01*
X298704Y368300D02*
X285496Y368300D01*
X285496Y393700D02*
X298704Y393700D01*
X298704Y419100D02*
X285496Y419100D01*
D15*
X419100Y114300D03*
X419100Y88900D03*
X469900Y368300D03*
X469900Y342900D03*
X469900Y317500D03*
X469900Y292100D03*
X469900Y266700D03*
X469900Y241300D03*
X469900Y215900D03*
X469900Y190500D03*
X469900Y165100D03*
X469900Y139700D03*
X25400Y139700D03*
X25400Y165100D03*
X25400Y190500D03*
X25400Y215900D03*
X25400Y241300D03*
X25400Y368300D03*
X25400Y342900D03*
X25400Y317500D03*
X25400Y292100D03*
X25400Y266700D03*
X25400Y76200D03*
X25400Y25400D03*
X25400Y50800D03*
X152400Y50800D03*
X152400Y25400D03*
D16*
X215900Y54600D03*
X190900Y54600D03*
X240900Y54600D03*
X240900Y21600D03*
X215900Y21600D03*
X190900Y21600D03*
D15*
X127000Y25400D03*
X127000Y50800D03*
X127000Y76200D03*
X127000Y101600D03*
X406400Y25400D03*
X381000Y25400D03*
X355600Y25400D03*
X330200Y25400D03*
X304800Y25400D03*
X279400Y25400D03*
X203200Y469900D03*
X228600Y469900D03*
X254000Y469900D03*
X279400Y469900D03*
X304800Y469900D03*
X444500Y38100D03*
X444500Y63500D03*
X444500Y88900D03*
X444500Y114300D03*
D17*
X481200Y469900D03*
X433200Y469900D03*
X17910Y469900D03*
X65910Y469900D03*
D18*
X342900Y431800D03*
X76200Y63500D03*
X76200Y139700D03*
X165100Y139700D03*
X342900Y88900D03*
X304800Y101600D03*
X254000Y431800D03*
X279400Y431800D03*
X114300Y431800D03*
X190500Y152400D03*
X177800Y406400D03*
X190500Y177800D03*
X381000Y139700D03*
X381000Y88900D03*
X355600Y165100D03*
X355600Y114300D03*
X273586Y165100D03*
X76200Y317500D03*
X101600Y317500D03*
X76200Y292100D03*
X101600Y292100D03*
X241300Y88900D03*
X76200Y266700D03*
X101600Y266700D03*
X330200Y114300D03*
X330200Y177800D03*
X431800Y190500D03*
X457200Y190500D03*
M02*
